<svg width="256" height="256" viewBox="0 0 256 256" fill="none" xmlns="http://www.w3.org/2000/svg">
<path d="M139.146 191.449C139.009 190.159 140.121 189.082 141.405 189.262L179.101 194.509C180.828 194.749 181.437 196.935 180.084 198.035L145.888 225.828C144.659 226.827 142.812 226.065 142.644 224.489L139.146 191.449Z" fill="white"/>
<path fill-rule="evenodd" clip-rule="evenodd" d="M166.918 109.271C162.804 111.065 159.848 115.07 159.628 119.848L155.93 200.238C155.742 204.318 157.592 208.019 160.583 210.362C164.242 211.717 168.06 212.658 171.97 213.137L179.487 213.483C182.22 213.399 184.977 213.089 187.739 212.537C191.983 211.689 195.992 210.317 199.72 208.499C215.846 200.38 227.351 183.896 228.568 164.351C228.588 164.019 228.606 163.687 228.621 163.352C229.636 140.332 216.093 120.118 196.317 112.014C192.663 110.894 188.824 109.978 185.194 109.295C183.892 109.05 182.604 108.851 181.358 108.686L173.878 108.342C171.515 108.491 169.191 108.804 166.918 109.271Z" fill="#FFC800"/>
<path fill-rule="evenodd" clip-rule="evenodd" d="M44.8049 145.894C41.7687 136.72 40.1152 126.837 40.1152 116.537C40.1152 68.3453 76.3158 29.2773 120.972 29.2773C165.627 29.2773 201.828 68.3453 201.828 116.537C201.828 119.656 201.676 122.736 201.381 125.769L183.608 128.054C184.009 124.814 184.215 121.503 184.215 118.138C184.215 78.7887 155.9 46.8892 120.972 46.8892C86.043 46.8892 57.7278 78.7887 57.7278 118.138C57.7278 127.146 59.2111 135.762 61.9177 143.694L44.8049 145.894Z" fill="#FFC800"/>
<mask id="path-4-inside-1_467_825" fill="white">
<path d="M165.334 88.4595C180.678 86.8112 194.453 97.914 196.102 113.258L202.761 175.244C202.873 176.287 202.923 177.324 202.92 178.35C203.052 192.555 192.379 204.811 177.961 206.36L169.178 207.246L145.889 226.177C144.659 227.177 142.812 226.413 142.645 224.838L141.081 210.083L124.078 211.799L94.2227 215.007C78.8785 216.655 65.1033 205.552 63.4551 190.208L56.7969 128.222C55.1486 112.878 66.2515 99.1029 81.5957 97.4546L165.334 88.4595Z"/>
</mask>
<path d="M165.334 88.4595C180.678 86.8112 194.453 97.914 196.102 113.258L202.761 175.244C202.873 176.287 202.923 177.324 202.92 178.35C203.052 192.555 192.379 204.811 177.961 206.36L169.178 207.246L145.889 226.177C144.659 227.177 142.812 226.413 142.645 224.838L141.081 210.083L124.078 211.799L94.2227 215.007C78.8785 216.655 65.1033 205.552 63.4551 190.208L56.7969 128.222C55.1486 112.878 66.2515 99.1029 81.5957 97.4546L165.334 88.4595Z" fill="white"/>
<path d="M165.334 88.4595L165.174 86.9692L165.174 86.9692L165.334 88.4595ZM196.102 113.258L194.611 113.418L194.611 113.418L196.102 113.258ZM202.761 175.244L204.251 175.084L204.251 175.084L202.761 175.244ZM202.92 178.35L201.421 178.345L201.421 178.355L201.421 178.364L202.92 178.35ZM177.961 206.36L178.111 207.851L178.121 207.85L177.961 206.36ZM169.178 207.246L169.027 205.754L168.581 205.799L168.232 206.083L169.178 207.246ZM145.889 226.177L146.834 227.34L146.834 227.34L145.889 226.177ZM142.645 224.838L141.154 224.996L141.154 224.997L142.645 224.838ZM141.081 210.083L142.572 209.925L142.414 208.441L140.93 208.591L141.081 210.083ZM124.078 211.799L123.928 210.308L123.918 210.309L124.078 211.799ZM94.2227 215.007L94.3827 216.498L94.3828 216.498L94.2227 215.007ZM63.4551 190.208L61.9648 190.368L61.9648 190.368L63.4551 190.208ZM56.7969 128.222L58.2871 128.062L58.2871 128.062L56.7969 128.222ZM81.5957 97.4546L81.4356 95.9643L81.4356 95.9643L81.5957 97.4546ZM165.334 88.4595L165.494 89.9497C180.015 88.3899 193.051 98.8971 194.611 113.418L196.102 113.258L197.592 113.098C195.855 96.9308 181.341 85.2326 165.174 86.9692L165.334 88.4595ZM196.102 113.258L194.611 113.418L201.27 175.404L202.761 175.244L204.251 175.084L197.592 113.098L196.102 113.258ZM202.761 175.244L201.27 175.404C201.376 176.39 201.424 177.372 201.421 178.345L202.92 178.35L204.419 178.355C204.422 177.277 204.369 176.185 204.251 175.084L202.761 175.244ZM202.92 178.35L201.421 178.364C201.546 191.805 191.445 203.404 177.801 204.87L177.961 206.36L178.121 207.85C193.314 206.218 204.557 193.304 204.419 178.336L202.92 178.35ZM177.961 206.36L177.811 204.869L169.027 205.754L169.178 207.246L169.328 208.737L178.111 207.851L177.961 206.36ZM169.178 207.246L168.232 206.083L144.943 225.014L145.889 226.177L146.834 227.34L170.123 208.409L169.178 207.246ZM145.889 226.177L144.943 225.014C144.638 225.262 144.177 225.073 144.135 224.68L142.645 224.838L141.154 224.997C141.447 227.752 144.68 229.091 146.834 227.34L145.889 226.177ZM142.645 224.838L144.135 224.68L142.572 209.925L141.081 210.083L139.591 210.24L141.154 224.996L142.645 224.838ZM141.081 210.083L140.93 208.591L123.928 210.308L124.078 211.799L124.229 213.291L141.232 211.574L141.081 210.083ZM124.078 211.799L123.918 210.309L94.0625 213.517L94.2227 215.007L94.3828 216.498L124.238 213.29L124.078 211.799ZM94.2227 215.007L94.0626 213.517C79.5415 215.077 66.5052 204.569 64.9453 190.047L63.4551 190.208L61.9648 190.368C63.7015 206.535 78.2154 218.234 94.3827 216.498L94.2227 215.007ZM63.4551 190.208L64.9453 190.047L58.2871 128.062L56.7969 128.222L55.3066 128.382L61.9648 190.368L63.4551 190.208ZM56.7969 128.222L58.2871 128.062C56.7273 113.541 67.2346 100.505 81.7558 98.9448L81.5957 97.4546L81.4356 95.9643C65.2683 97.7011 53.57 112.215 55.3066 128.382L56.7969 128.222ZM81.5957 97.4546L81.7558 98.9448L165.494 89.9497L165.334 88.4595L165.174 86.9692L81.4356 95.9643L81.5957 97.4546Z" fill="#BDBDBD" mask="url(#path-4-inside-1_467_825)"/>
<path d="M138.617 124.136L144.199 179.416" stroke="#FFC800" stroke-width="5.40958" stroke-linecap="round"/>
<path d="M151.891 132.498L155.541 168.643" stroke="#FFC800" stroke-width="5.40958" stroke-linecap="round"/>
<path d="M128.136 139.118L130.928 166.759" stroke="#FFC800" stroke-width="5.40958" stroke-linecap="round"/>
<path d="M116.583 143.471L118.73 164.732" stroke="#FFC800" stroke-width="5.40958" stroke-linecap="round"/>
<path d="M164.735 138.756L166.881 160.019" stroke="#FFC800" stroke-width="5.40958" stroke-linecap="round"/>
<path d="M91.9663 145.879L94.1138 167.142" stroke="#FFC800" stroke-width="5.40958" stroke-linecap="round"/>
<path d="M103.095 132.98L107.603 177.631" stroke="#FFC800" stroke-width="5.40958" stroke-linecap="round"/>
<path fill-rule="evenodd" clip-rule="evenodd" d="M77.3251 118.79C81.7337 119.615 85.5129 122.852 86.8012 127.456L108.489 204.954C109.59 208.886 108.618 212.909 106.23 215.864C102.971 218.009 99.4642 219.783 95.7628 221.129L88.5126 223.159C85.8317 223.691 83.0755 224.01 80.2605 224.092C75.8922 224.221 71.6361 223.777 67.5579 222.825C49.8468 218.454 34.8285 204.709 29.4291 185.605C29.4065 185.526 29.3842 185.446 29.3619 185.366C23.1941 163.163 31.8441 140.42 49.2912 128.076C52.5991 126.163 56.1336 124.406 59.5166 122.925C60.7318 122.392 61.9451 121.908 63.1229 121.466L70.3169 119.454C72.6596 119.065 75.0001 118.846 77.3251 118.79Z" fill="#FFC800"/>
</svg>
